<?xml version="1.0" standalone="no"?>
<!DOCTYPE svg PUBLIC "-//W3C//DTD SVG 20010904//EN"
 "http://www.w3.org/TR/2001/REC-SVG-20010904/DTD/svg10.dtd">
<svg version="1.0" xmlns="http://www.w3.org/2000/svg"
 width="261.000000pt" height="261.000000pt" viewBox="0 0 261.000000 261.000000"
 preserveAspectRatio="xMidYMid meet">
<metadata>
Created by potrace 1.11, written by Peter Selinger 2001-2013
</metadata>
<g transform="translate(0.000000,261.000000) scale(0.100000,-0.100000)"
fill="#000000" stroke="none">
<path d="M1234 2593 c-17 -10 -40 -25 -51 -33 -11 -8 -282 -536 -602 -1173
-522 -1038 -582 -1163 -580 -1200 3 -47 27 -104 55 -128 58 -51 -7 -49 1243
-49 1246 0 1198 -2 1255 48 28 25 56 91 56 135 0 31 -113 263 -575 1184 -317
630 -584 1156 -593 1168 -43 57 -150 82 -208 48z m504 -1420 c221 -441 399
-803 395 -805 -7 -4 -1653 -2 -1661 1 -1 0 185 375 414 831 l417 831 16 -28
c9 -15 198 -389 419 -830z"/>
</g>
</svg>
